<svg width="208" height="58" viewBox="0 0 208 58" fill="none" xmlns="http://www.w3.org/2000/svg">
  <path d="M79.1363 26.6246C80.3974 24.4929 81.5984 22.3611 82.7393 20.2293C83.8803 18.0975 84.9312 15.9507 85.892 13.7889H93.6385C91.927 17.1517 90.1555 20.4094 88.324 23.5621C86.4925 26.7147 84.5559 29.8824 82.5142 33.065V45H75.4883V33.1551C73.4466 29.9724 71.4949 26.7898 69.6334 23.6071C67.8019 20.4245 66.0304 17.1517 64.3189 13.7889H72.4708C73.4316 15.9507 74.4674 18.0975 75.5784 20.2293C76.6893 22.3611 77.8753 24.4929 79.1363 26.6246ZM91.9379 33.3352C91.9379 31.2335 92.2532 29.402 92.8837 27.8407C93.5443 26.2493 94.4 24.9282 95.4509 23.8773C96.5017 22.8265 97.7027 22.0308 99.0539 21.4903C100.435 20.9499 101.846 20.6797 103.287 20.6797C106.65 20.6797 109.307 21.7155 111.259 23.7873C113.211 25.829 114.187 28.8465 114.187 32.8398C114.187 33.2302 114.172 33.6655 114.141 34.1459C114.111 34.5963 114.081 35.0016 114.051 35.3619H98.8287C98.9788 36.7431 99.6244 37.839 100.765 38.6497C101.906 39.4604 103.438 39.8657 105.359 39.8657C106.59 39.8657 107.791 39.7606 108.962 39.5504C110.163 39.3102 111.139 39.025 111.89 38.6947L112.79 44.1443C112.43 44.3244 111.95 44.5046 111.349 44.6847C110.749 44.8649 110.073 45.015 109.322 45.1351C108.602 45.2852 107.821 45.4053 106.981 45.4954C106.14 45.5855 105.299 45.6305 104.458 45.6305C102.327 45.6305 100.465 45.3153 98.8737 44.6847C97.3124 44.0542 96.0063 43.1985 94.9555 42.1176C93.9346 41.0067 93.169 39.7006 92.6585 38.1993C92.1781 36.6981 91.9379 35.0767 91.9379 33.3352ZM107.701 30.7681C107.671 30.1976 107.566 29.6422 107.386 29.1017C107.236 28.5613 106.981 28.0809 106.62 27.6605C106.29 27.2402 105.855 26.8949 105.314 26.6246C104.804 26.3544 104.158 26.2193 103.377 26.2193C102.627 26.2193 101.981 26.3544 101.441 26.6246C100.9 26.8648 100.45 27.1951 100.09 27.6155C99.7294 28.0358 99.4442 28.5312 99.234 29.1017C99.0539 29.6422 98.9188 30.1976 98.8287 30.7681H107.701ZM128.823 45.4504C126.871 45.4204 125.28 45.2102 124.049 44.8198C122.848 44.4295 121.887 43.8891 121.167 43.1985C120.476 42.4779 119.996 41.6222 119.725 40.6313C119.485 39.6105 119.365 38.4695 119.365 37.2085V11.1317L126.076 10.0508V35.8574C126.076 36.4579 126.121 36.9983 126.211 37.4787C126.301 37.9591 126.466 38.3645 126.706 38.6947C126.977 39.025 127.352 39.2952 127.832 39.5054C128.313 39.7156 128.958 39.8507 129.769 39.9107L128.823 45.4504ZM143.073 45.4504C141.122 45.4204 139.53 45.2102 138.299 44.8198C137.098 44.4295 136.137 43.8891 135.417 43.1985C134.726 42.4779 134.246 41.6222 133.976 40.6313C133.735 39.6105 133.615 38.4695 133.615 37.2085V11.1317L140.326 10.0508V35.8574C140.326 36.4579 140.371 36.9983 140.461 37.4787C140.551 37.9591 140.716 38.3645 140.956 38.6947C141.227 39.025 141.602 39.2952 142.082 39.5054C142.563 39.7156 143.208 39.8507 144.019 39.9107L143.073 45.4504ZM170.024 33.1101C170.024 34.9716 169.754 36.683 169.213 38.2444C168.673 39.7756 167.892 41.0967 166.871 42.2077C165.851 43.2886 164.62 44.1293 163.178 44.7298C161.767 45.3303 160.176 45.6305 158.404 45.6305C156.663 45.6305 155.072 45.3303 153.63 44.7298C152.219 44.1293 151.003 43.2886 149.982 42.2077C148.961 41.0967 148.166 39.7756 147.595 38.2444C147.025 36.683 146.74 34.9716 146.74 33.1101C146.74 31.2485 147.025 29.5521 147.595 28.0208C148.196 26.4895 149.007 25.1834 150.027 24.1025C151.078 23.0216 152.309 22.1809 153.72 21.5804C155.162 20.9799 156.723 20.6797 158.404 20.6797C160.116 20.6797 161.677 20.9799 163.088 21.5804C164.529 22.1809 165.761 23.0216 166.781 24.1025C167.802 25.1834 168.598 26.4895 169.168 28.0208C169.739 29.5521 170.024 31.2485 170.024 33.1101ZM163.178 33.1101C163.178 31.0383 162.758 29.417 161.917 28.246C161.107 27.045 159.936 26.4445 158.404 26.4445C156.873 26.4445 155.687 27.045 154.846 28.246C154.006 29.417 153.585 31.0383 153.585 33.1101C153.585 35.1818 154.006 36.8332 154.846 38.0642C155.687 39.2652 156.873 39.8657 158.404 39.8657C159.936 39.8657 161.107 39.2652 161.917 38.0642C162.758 36.8332 163.178 35.1818 163.178 33.1101ZM189.107 31.3986C188.506 33.6805 187.861 35.9474 187.17 38.1993C186.509 40.4512 185.804 42.7181 185.053 45H179.829C179.288 43.7389 178.703 42.2377 178.072 40.4962C177.442 38.7548 176.781 36.8632 176.091 34.8215C175.43 32.7498 174.74 30.5729 174.019 28.291C173.328 25.9791 172.653 23.6522 171.992 21.3102H179.063C179.303 22.3911 179.559 23.5771 179.829 24.8682C180.129 26.1292 180.429 27.4353 180.73 28.7864C181.06 30.1376 181.39 31.5037 181.72 32.8849C182.081 34.236 182.441 35.5421 182.801 36.8031C183.192 35.482 183.567 34.1309 183.927 32.7498C184.318 31.3686 184.678 30.0175 185.008 28.6964C185.369 27.3452 185.699 26.0542 185.999 24.8231C186.329 23.5621 186.615 22.3911 186.855 21.3102H191.719C191.959 22.3911 192.229 23.5621 192.53 24.8231C192.83 26.0542 193.145 27.3452 193.475 28.6964C193.806 30.0175 194.151 31.3686 194.511 32.7498C194.871 34.1309 195.247 35.482 195.637 36.8031C195.997 35.5421 196.358 34.236 196.718 32.8849C197.078 31.5037 197.409 30.1376 197.709 28.7864C198.039 27.4353 198.339 26.1292 198.61 24.8682C198.91 23.5771 199.18 22.3911 199.42 21.3102H206.401C205.741 23.6522 205.05 25.9791 204.329 28.291C203.639 30.5729 202.948 32.7498 202.258 34.8215C201.597 36.8632 200.937 38.7548 200.276 40.4962C199.645 42.2377 199.06 43.7389 198.52 45H193.295C192.545 42.7181 191.809 40.4512 191.088 38.1993C190.368 35.9474 189.707 33.6805 189.107 31.3986Z" fill="#262626"/>
  <rect x="8.66016" y="6.9289" width="34.6444" height="38.1088" fill="white"/>
  <rect x="6.92969" y="9.52723" width="35.5105" height="35.5105" fill="#FFDD11"/>
  <path d="M25.826 25.375C24.8192 25.375 24.0312 26.163 24.0312 27.4324C24.0312 28.7019 24.8192 29.4899 25.826 29.4899C26.8329 29.4899 27.6208 28.7019 27.6208 27.4324C27.6208 26.163 26.8329 25.375 25.826 25.375Z" fill="#262626"/>
  <path d="M51.436 17.0139C50.5167 8.8279 44.038 2.34915 35.8082 1.42987H35.6769C29.2419 0.685688 22.7632 0.685688 16.2844 1.38609H16.1531C7.96711 2.34915 1.48836 8.8279 0.569079 17.0139C0.175101 20.297 0 23.5802 0 26.8633V27.0822C0 41.9658 1.96989 50.8522 1.96989 50.8522C1.96989 50.8522 10.8563 52.8221 25.7399 52.8221C25.7837 52.8221 25.7837 52.8221 25.8274 52.8221C25.8712 52.8221 25.915 52.8221 26.0025 52.8221C29.2419 52.8221 32.4813 52.647 35.7207 52.253H35.852C44.0817 51.3337 50.5605 44.855 51.4798 36.6252L51.5235 36.4063C52.1802 29.9714 52.1364 23.4488 51.436 17.0139ZM34.3636 34.8742C32.6126 34.8742 31.4744 34.2613 30.774 33.6485C30.3363 33.2983 30.0299 32.9043 29.7672 32.379H29.5921C29.3295 32.8605 29.023 33.2983 28.5853 33.6485C27.8411 34.2613 26.8343 34.8742 25.1708 34.8742C21.6688 34.8742 18.8234 31.9413 18.8234 27.7826C18.8234 23.6239 21.6688 20.691 25.1708 20.691C26.3527 20.691 27.1845 21.0412 27.7535 21.4352C28.1038 21.6541 28.3664 21.9167 28.6291 22.1794H28.8042V20.8223H32.4375V29.0959C32.4375 30.4529 33.3568 31.416 34.5387 31.416C36.0709 31.416 37.209 30.3216 37.209 26.8195C37.209 20.8661 32.4375 16.0508 25.8712 16.0508C19.7427 16.0508 14.7523 21.0412 14.7523 27.5637C14.7523 34.0862 19.7427 39.0766 25.8712 39.0766C28.06 39.0766 29.811 38.5076 30.9929 37.9385C31.6933 37.5883 32.3062 37.1943 32.7877 36.8003L34.8889 39.4706C34.2323 40.1272 33.4443 40.6525 32.5251 41.1341C30.9929 41.922 28.7604 42.7538 25.8274 42.7538C17.7728 42.7538 10.8563 35.8373 10.8563 27.5637C10.8563 19.2902 17.7728 12.3737 25.8274 12.3737C34.4512 12.3737 41.0175 18.94 41.0175 26.7758C41.0612 32.0288 38.1721 34.8742 34.3636 34.8742Z" fill="#262626"/>
</svg>
