<svg viewBox="0 0 26 26" fill="none" xmlns="http://www.w3.org/2000/svg">
<path d="M13 0.398315C19.9605 0.398315 25.6035 6.04045 25.6035 13.0009C25.6035 19.9613 19.9605 25.6034 13 25.6034C6.03956 25.6033 0.397461 19.9612 0.397461 13.0009C0.397461 6.04053 6.03956 0.398443 13 0.398315Z" fill="white" stroke="#262626" stroke-width="0.794125"/>
<path d="M13.0009 22.1759C18.068 22.1759 22.1775 18.0679 22.1775 12.9995C22.1775 7.93108 18.068 3.82434 13.0009 3.82434C7.9337 3.82434 3.82422 7.93241 3.82422 13.0008C3.82422 18.0692 7.93236 22.1773 13.0009 22.1773V22.1759Z" fill="#F0F2F9"/>
<path d="M12.2018 13.0009C12.2018 13.0009 6.51705 19.4911 6.51172 19.4897C8.17232 21.1503 10.4665 22.1773 13.0007 22.1773C18.0679 22.1773 22.1774 18.0693 22.1774 13.0009H12.2018Z" fill="#DF1838"/>
<path d="M6.51219 6.51196C2.92823 10.0959 2.92823 15.9058 6.51219 19.4884C7.99272 18.0079 9.41723 16.5834 13.0012 12.9995L6.51219 6.51196Z" fill="#092D7E"/>
</svg>
