<svg width="34" height="34" viewBox="0 0 34 34" fill="none" xmlns="http://www.w3.org/2000/svg">
<circle cx="17" cy="17" r="16.5" fill="white" stroke="#262626"/>
<path d="M17 28.9983C23.6279 28.9983 29 23.6262 29 16.9983C29 10.3703 23.6279 5 17 5C10.3721 5 5 10.3721 5 17C5 23.6279 10.3721 29 17 29V28.9983Z" fill="#F4F5F9"/>
<path d="M7.48092 9.69189C6.53906 10.9198 5.82569 12.3361 5.41406 13.8675H11.6582L7.48092 9.69189Z" fill="#092D7E"/>
<path d="M28.5862 13.8675C28.1746 12.3343 27.4612 10.9198 26.5193 9.69189L22.3438 13.8675H28.5879H28.5862Z" fill="#092D7E"/>
<path d="M5.41406 20.1309C5.82569 21.664 6.53906 23.0785 7.48092 24.3064L11.6565 20.1309H5.41406Z" fill="#092D7E"/>
<path d="M24.3045 7.48022C23.0766 6.53836 21.6603 5.82499 20.1289 5.41336V11.6576L24.3045 7.48197V7.48022Z" fill="#092D7E"/>
<path d="M9.69141 26.5197C10.9193 27.4616 12.3356 28.175 13.867 28.5866V22.3424L9.69141 26.518V26.5197Z" fill="#092D7E"/>
<path d="M13.867 5.41162C12.3338 5.82325 10.9193 6.53662 9.69141 7.47848L13.867 11.6541V5.41162Z" fill="#092D7E"/>
<path d="M20.1289 28.5866C21.662 28.175 23.0766 27.4616 24.3045 26.5198L20.1289 22.3442V28.5884V28.5866Z" fill="#092D7E"/>
<path d="M22.3416 20.1308L26.5172 24.3064C27.459 23.0785 28.1724 21.6622 28.584 20.1308H22.3398H22.3416Z" fill="#092D7E"/>
<path d="M28.8953 15.4337H18.5645V5.10291C18.0535 5.03314 17.5285 5 16.9983 5C16.468 5 15.943 5.03314 15.432 5.10291V15.4337H5.10291C5.03314 15.9448 5 16.4698 5 17C5 17.5302 5.03314 18.0552 5.10291 18.5663H15.4337V28.8971C15.9448 28.9669 16.4698 29 17 29C17.5302 29 18.0552 28.9669 18.5663 28.8971V18.5663H28.8971C28.9669 18.0552 29 17.5302 29 17C29 16.4698 28.9669 15.9448 28.8971 15.4337H28.8953Z" fill="#DF1838"/>
<path d="M20.1289 20.1308L25.4818 25.4837C25.7295 25.2395 25.965 24.9814 26.19 24.7145L21.6062 20.1308H20.1289Z" fill="#DF1838"/>
<path d="M13.8685 20.1308L8.51562 25.4837C8.75981 25.7314 9.01795 25.9669 9.28481 26.1919L13.8685 21.6081V20.1308Z" fill="#DF1838"/>
<path d="M13.8657 13.8674L8.51283 8.51452C8.26515 8.75871 8.02969 9.01685 7.80469 9.28371L12.3884 13.8674H13.8657Z" fill="#DF1838"/>
<path d="M20.1289 13.8675L25.4818 8.51455C25.2376 8.26687 24.9795 8.03141 24.7126 7.80641L20.1289 12.3901V13.8675Z" fill="#DF1838"/>
</svg>
