<svg viewBox="0 0 18 24" fill="none" xmlns="http://www.w3.org/2000/svg">
<path d="M14.8688 9.67398V16.8191H12.6423V19.0459H10.4159V21.2726H6.48574C4.14313 21.2726 2.24581 19.375 2.24581 17.0321V9.05435C2.24581 8.97689 2.24581 8.88008 2.24581 8.80262V6.7501C2.24581 5.49148 2.65238 4.31032 3.36871 3.36151C1.35523 4.46522 0 6.5952 0 9.05435V17.0127C0 20.5949 2.90406 23.4994 6.48574 23.4994H10.4159V21.2726H12.6423V23.4994H14.8882V21.2726H17.0952V19.0265H14.8688V16.7997H17.0952V9.05435C17.0952 8.80262 17.0759 8.57026 17.0565 8.3379C16.4757 8.95753 15.7207 9.44162 14.8688 9.67398Z" fill="currentColor"/>
<path d="M11.0727 0.50061C7.31676 0.50061 4.25781 3.56003 4.25781 7.31652V8.45896H11.4599C14.6931 8.45896 17.3067 5.82554 17.3067 2.61122V0.50061H11.0727ZM11.4405 6.17408H6.67786C7.18124 4.23774 8.96239 2.78549 11.0727 2.78549H15.0028C14.906 4.66374 13.3572 6.17408 11.4405 6.17408Z" fill="#262626"/>
<path d="M5.84808 14.1725C6.79971 14.1725 7.57115 13.4009 7.57115 12.4491C7.57115 11.4973 6.79971 10.7258 5.84808 10.7258C4.89645 10.7258 4.125 11.4973 4.125 12.4491C4.125 13.4009 4.89645 14.1725 5.84808 14.1725Z" fill="#262626"/>
<path d="M11.2465 14.1725C12.1981 14.1725 12.9696 13.4009 12.9696 12.4491C12.9696 11.4973 12.1981 10.7258 11.2465 10.7258C10.2949 10.7258 9.52344 11.4973 9.52344 12.4491C9.52344 13.4009 10.2949 14.1725 11.2465 14.1725Z" fill="#262626"/>
</svg>
