<svg viewBox="0 0 23 23" fill="currentColor" xmlns="http://www.w3.org/2000/svg">
<path fill-rule="evenodd" clip-rule="evenodd" d="M6.44 6.24121C5.99541 6.24121 5.635 5.87898 5.635 5.43216V0.809045C5.635 0.362222 5.99541 2.44141e-08 6.44 0C6.88459 -2.4414e-08 7.245 0.362222 7.245 0.809045V5.43216C7.245 5.87898 6.88459 6.24121 6.44 6.24121Z" fill="currentColor"/>
<path fill-rule="evenodd" clip-rule="evenodd" d="M16.56 6.24121C16.1154 6.24121 15.755 5.87898 15.755 5.43216V0.809045C15.755 0.362222 16.1154 2.44141e-08 16.56 0C17.0046 -2.4414e-08 17.365 0.362222 17.365 0.809045V5.43216C17.365 5.87898 17.0046 6.24121 16.56 6.24121Z" fill="currentColor"/>
<path fill-rule="evenodd" clip-rule="evenodd" d="M20.7 4.27638H2.3C1.91892 4.27638 1.61 4.58686 1.61 4.96985V20.6884C1.61 21.0714 1.91892 21.3819 2.3 21.3819H20.7C21.0811 21.3819 21.39 21.0714 21.39 20.6884V4.96985C21.39 4.58686 21.0811 4.27638 20.7 4.27638ZM2.3 2.65829C1.02975 2.65829 0 3.69321 0 4.96985V20.6884C0 21.9651 1.02975 23 2.3 23H20.7C21.9703 23 23 21.9651 23 20.6884V4.96985C23 3.69321 21.9703 2.65829 20.7 2.65829H2.3Z" fill="currentColor"/>
<path fill-rule="evenodd" clip-rule="evenodd" d="M23 9.59297H1.38V7.97487H23V9.59297Z" fill="currentColor"/>
<path d="M7.36 13.2915C7.36 14.0574 6.74215 14.6784 5.98 14.6784C5.21785 14.6784 4.6 14.0574 4.6 13.2915C4.6 12.5255 5.21785 11.9045 5.98 11.9045C6.74215 11.9045 7.36 12.5255 7.36 13.2915Z" fill="currentColor"/>
<path d="M11.04 13.2915C11.04 14.0574 10.4222 14.6784 9.66 14.6784C8.89785 14.6784 8.28 14.0574 8.28 13.2915C8.28 12.5255 8.89785 11.9045 9.66 11.9045C10.4222 11.9045 11.04 12.5255 11.04 13.2915Z" fill="currentColor"/>
<path d="M14.72 13.2915C14.72 14.0574 14.1022 14.6784 13.34 14.6784C12.5778 14.6784 11.96 14.0574 11.96 13.2915C11.96 12.5255 12.5778 11.9045 13.34 11.9045C14.1022 11.9045 14.72 12.5255 14.72 13.2915Z" fill="currentColor"/>
<path d="M18.4 13.2915C18.4 14.0574 17.7822 14.6784 17.02 14.6784C16.2578 14.6784 15.64 14.0574 15.64 13.2915C15.64 12.5255 16.2578 11.9045 17.02 11.9045C17.7822 11.9045 18.4 12.5255 18.4 13.2915Z" fill="currentColor"/>
<path d="M7.36 17.4523C7.36 18.2182 6.74215 18.8392 5.98 18.8392C5.21785 18.8392 4.6 18.2182 4.6 17.4523C4.6 16.6863 5.21785 16.0653 5.98 16.0653C6.74215 16.0653 7.36 16.6863 7.36 17.4523Z" fill="currentColor"/>
<path d="M11.04 17.4523C11.04 18.2182 10.4222 18.8392 9.66 18.8392C8.89785 18.8392 8.28 18.2182 8.28 17.4523C8.28 16.6863 8.89785 16.0653 9.66 16.0653C10.4222 16.0653 11.04 16.6863 11.04 17.4523Z" fill="currentColor"/>
<path d="M14.72 17.4523C14.72 18.2182 14.1022 18.8392 13.34 18.8392C12.5778 18.8392 11.96 18.2182 11.96 17.4523C11.96 16.6863 12.5778 16.0653 13.34 16.0653C14.1022 16.0653 14.72 16.6863 14.72 17.4523Z" fill="currentColor"/>
<path d="M18.4 17.4523C18.4 18.2182 17.7822 18.8392 17.02 18.8392C16.2578 18.8392 15.64 18.2182 15.64 17.4523C15.64 16.6863 16.2578 16.0653 17.02 16.0653C17.7822 16.0653 18.4 16.6863 18.4 17.4523Z" fill="currentColor"/>
</svg>
