<svg viewBox="0 0 23 23" fill="currentColor" xmlns="http://www.w3.org/2000/svg">
<path fill-rule="evenodd" clip-rule="evenodd" d="M20.7032 8.89963H2.29679C1.86847 8.89963 1.54399 9.28897 1.61843 9.7136L3.56341 20.809C3.6215 21.1404 3.90752 21.3819 4.24178 21.3819H18.7582C19.0925 21.3819 19.3785 21.1404 19.4366 20.809L21.3816 9.7136C21.456 9.28897 21.1315 8.89963 20.7032 8.89963ZM2.29679 7.28155C0.869038 7.28155 -0.212555 8.57936 0.0355678 9.9948L1.98055 21.0902C2.17419 22.1948 3.12759 23 4.24178 23H18.7582C19.8724 23 20.8258 22.1948 21.0194 21.0902L22.9644 9.9948C23.2126 8.57936 22.131 7.28155 20.7032 7.28155H2.29679Z" fill="currentColor"/>
<path fill-rule="evenodd" clip-rule="evenodd" d="M7.82614 17.7991C7.38229 17.7991 7.02248 17.4369 7.02248 16.9901V13.2916C7.02248 12.8448 7.38229 12.4826 7.82614 12.4826C8.26998 12.4826 8.62979 12.8448 8.62979 13.2916V16.9901C8.62979 17.4369 8.26998 17.7991 7.82614 17.7991Z" fill="currentColor"/>
<path fill-rule="evenodd" clip-rule="evenodd" d="M11.5 17.7991C11.0562 17.7991 10.6963 17.4369 10.6963 16.9901V13.2916C10.6963 12.8448 11.0562 12.4826 11.5 12.4826C11.9438 12.4826 12.3037 12.8448 12.3037 13.2916V16.9901C12.3037 17.4369 11.9438 17.7991 11.5 17.7991Z" fill="currentColor"/>
<path fill-rule="evenodd" clip-rule="evenodd" d="M15.1739 17.7991C14.73 17.7991 14.3702 17.4369 14.3702 16.9901V13.2916C14.3702 12.8448 14.73 12.4826 15.1739 12.4826C15.6177 12.4826 15.9775 12.8448 15.9775 13.2916V16.9901C15.9775 17.4369 15.6177 17.7991 15.1739 17.7991Z" fill="currentColor"/>
<path fill-rule="evenodd" clip-rule="evenodd" d="M18.687 8.49503C18.2749 8.66098 17.8072 8.45919 17.6423 8.04433L14.8869 1.10972C14.7221 0.694861 14.9225 0.224025 15.3346 0.0580802C15.7467 -0.107864 16.2144 0.093923 16.3793 0.508784L19.1347 7.44339C19.2995 7.85825 19.0991 8.32909 18.687 8.49503Z" fill="currentColor"/>
<path fill-rule="evenodd" clip-rule="evenodd" d="M4.31304 8.49503C4.72514 8.66098 5.19284 8.45919 5.35768 8.04433L8.11308 1.10972C8.27792 0.694861 8.07748 0.224025 7.66538 0.0580802C7.25327 -0.107864 6.78557 0.093923 6.62073 0.508784L3.86533 7.44339C3.70049 7.85825 3.90093 8.32909 4.31304 8.49503Z" fill="currentColor"/>
</svg>
