<svg viewBox="0 0 47 50" fill="none" xmlns="http://www.w3.org/2000/svg">
<path fill-rule="evenodd" clip-rule="evenodd" d="M2.5665 10.877C2.97197 9.96471 4.04025 9.55385 4.95255 9.95929L23.5005 18.2025L42.0484 9.95929C42.9606 9.55385 44.0289 9.96471 44.4343 10.877C44.8399 11.7893 44.429 12.8575 43.5167 13.2629L24.2346 21.8323C23.7673 22.0401 23.2337 22.0401 22.7663 21.8323L3.4842 13.2629C2.5719 12.8575 2.16102 11.7893 2.5665 10.877Z" fill="currentColor"/>
<path fill-rule="evenodd" clip-rule="evenodd" d="M18.8501 0.986709C21.8104 -0.328903 25.1896 -0.328903 28.1499 0.986709L40.2011 6.34263C44.3355 8.18009 47 12.28 47 16.8042V33.1958C47 37.7199 44.3355 41.8198 40.2011 43.6574L28.1499 49.0132C25.1896 50.3289 21.8104 50.3289 18.8501 49.0132L6.79895 43.6574C2.66451 41.8198 0 37.7199 0 33.1958V16.8042C0 12.28 2.66449 8.18009 6.79895 6.34263L18.8501 0.986709ZM26.6815 4.29037C24.656 3.3902 22.344 3.3902 20.3185 4.29037L8.2673 9.64629C5.43845 10.9035 3.61538 13.7087 3.61538 16.8042V33.1958C3.61538 36.2914 5.43848 39.0964 8.2673 40.3537L20.3185 45.7096C22.344 46.6098 24.656 46.6098 26.6815 45.7096L38.7328 40.3537C41.5615 39.0964 43.3846 36.2914 43.3846 33.1958V16.8042C43.3846 13.7087 41.5615 10.9035 38.7326 9.64629L26.6815 4.29037Z" fill="currentColor"/>
<path fill-rule="evenodd" clip-rule="evenodd" d="M23.5 18.3728C24.4983 18.3728 25.3077 19.1821 25.3077 20.1804V46.6922C25.3077 47.6905 24.4983 48.4999 23.5 48.4999C22.5017 48.4999 21.6923 47.6905 21.6923 46.6922V20.1804C21.6923 19.1821 22.5017 18.3728 23.5 18.3728Z" fill="currentColor"/>
</svg>
