<svg viewBox="0 0 10 20" fill="none" xmlns="http://www.w3.org/2000/svg">
<path d="M9.62343 0.817325L7.22488 0.813477C4.5302 0.813477 2.78878 2.60012 2.78878 5.36542V7.46417H0.377148C0.168755 7.46417 0 7.63312 0 7.84151V10.8824C0 11.0908 0.168947 11.2595 0.377148 11.2595H2.78878V18.9325C2.78878 19.1409 2.95753 19.3097 3.16593 19.3097H6.31242C6.52081 19.3097 6.68957 19.1407 6.68957 18.9325V11.2595H9.50932C9.71772 11.2595 9.88647 11.0908 9.88647 10.8824L9.88763 7.84151C9.88763 7.74145 9.84779 7.64563 9.77718 7.57482C9.70656 7.504 9.61034 7.46417 9.51029 7.46417H6.68957V5.68503C6.68957 4.82991 6.89334 4.3958 8.00727 4.3958L9.62304 4.39523C9.83125 4.39523 10 4.22628 10 4.01808V1.19447C10 0.986464 9.83144 0.81771 9.62343 0.817325Z" fill="currentColor"/>
<defs>
<linearGradient id="paint0_linear_256_153" x1="0.4" y1="15.2218" x2="21.7314" y2="5.92362" gradientUnits="userSpaceOnUse">
<stop stop-color="#FFC934"/>
<stop offset="1" stop-color="#FFE346"/>
</linearGradient>
</defs>
</svg>
