<svg viewBox="0 0 25 25" fill="currentColor" xmlns="http://www.w3.org/2000/svg">
<path fill-rule="evenodd" clip-rule="evenodd" d="M9.98262 17.3345L12.5043 21.5069L15.026 17.3345H21.8394C22.236 17.3345 22.5575 17.0134 22.5575 16.6173V2.75233C22.5575 2.35626 22.236 2.03518 21.8394 2.03518H2.69049C2.2939 2.03518 1.97241 2.35626 1.97241 2.75233V16.6173C1.97241 17.0134 2.2939 17.3345 2.69049 17.3345H9.98262ZM12.9142 24.0669C12.728 24.375 12.2807 24.375 12.0945 24.0669L9.03687 19.0078H2.69049C1.36853 19.0078 0.296875 17.9376 0.296875 16.6173V2.75233C0.296875 1.43209 1.36853 0.361816 2.69049 0.361816H21.8394C23.1614 0.361816 24.233 1.43209 24.233 2.75233V16.6173C24.233 17.9376 23.1614 19.0078 21.8394 19.0078H15.9718L12.9142 24.0669Z" fill="currentColor"/>
<path fill-rule="evenodd" clip-rule="evenodd" d="M5.20379 8.01147C5.20379 7.54938 5.57887 7.17479 6.04156 7.17479H18.4884C18.951 7.17479 19.3261 7.54938 19.3261 8.01147C19.3261 8.47356 18.951 8.84815 18.4884 8.84815H6.04156C5.57887 8.84815 5.20379 8.47356 5.20379 8.01147Z" fill="currentColor"/>
<path fill-rule="evenodd" clip-rule="evenodd" d="M5.20379 11.8363C5.20379 11.3742 5.57887 10.9996 6.04156 10.9996H13.7011C14.1638 10.9996 14.5389 11.3742 14.5389 11.8363C14.5389 12.2984 14.1638 12.673 13.7011 12.673H6.04156C5.57887 12.673 5.20379 12.2984 5.20379 11.8363Z" fill="currentColor"/>
</svg>
