<svg viewBox="0 0 49 50" fill="none" xmlns="http://www.w3.org/2000/svg">
<path fill-rule="evenodd" clip-rule="evenodd" d="M24 29.5051C26.4853 29.5051 28.5 27.4909 28.5 25.0062C28.5 22.5215 26.4853 20.5073 24 20.5073C21.5147 20.5073 19.5 22.5215 19.5 25.0062C19.5 27.4909 21.5147 29.5051 24 29.5051ZM24 33.0042C28.4183 33.0042 32 29.4234 32 25.0062C32 20.589 28.4183 17.0082 24 17.0082C19.5817 17.0082 16 20.589 16 25.0062C16 29.4234 19.5817 33.0042 24 33.0042Z" fill="currentColor"/>
<path d="M49 44.0015C49 47.3144 46.3137 50 43 50C39.6863 50 37 47.3144 37 44.0015C37 40.6886 39.6863 38.003 43 38.003C46.3137 38.003 49 40.6886 49 44.0015Z" fill="currentColor"/>
<path fill-rule="evenodd" clip-rule="evenodd" d="M43 46.5009C44.3807 46.5009 45.5 45.3819 45.5 44.0015C45.5 42.6211 44.3807 41.5021 43 41.5021C41.6193 41.5021 40.5 42.6211 40.5 44.0015C40.5 45.3819 41.6193 46.5009 43 46.5009ZM43 50C46.3137 50 49 47.3144 49 44.0015C49 40.6886 46.3137 38.003 43 38.003C39.6863 38.003 37 40.6886 37 44.0015C37 47.3144 39.6863 50 43 50Z" fill="currentColor"/>
<path d="M41.8891 4.91173C42.4901 8.16968 40.3355 11.2978 37.0767 11.8986C33.818 12.4994 30.6891 10.3454 30.0881 7.08741C29.4872 3.82945 31.6418 0.701318 34.9005 0.100522C38.1593 -0.500274 41.2882 1.65378 41.8891 4.91173Z" fill="currentColor"/>
<path fill-rule="evenodd" clip-rule="evenodd" d="M36.442 8.4575C37.7998 8.20717 38.6976 6.90378 38.4472 5.5463C38.1968 4.18882 36.8931 3.2913 35.5352 3.54163C34.1774 3.79196 33.2797 5.09535 33.5301 6.45283C33.7805 7.81031 35.0842 8.70784 36.442 8.4575ZM37.0767 11.8986C40.3355 11.2978 42.4901 8.16968 41.8891 4.91173C41.2882 1.65378 38.1593 -0.500274 34.9005 0.100522C31.6418 0.701318 29.4872 3.82945 30.0881 7.08741C30.6891 10.3454 33.818 12.4994 37.0767 11.8986Z" fill="currentColor"/>
<path d="M14 42.002C14 45.867 10.866 49.0003 7.00001 49.0003C3.13402 49.0003 1.04759e-05 45.867 1.04759e-05 42.002C1.04759e-05 38.137 3.13402 35.0037 7.00001 35.0037C10.866 35.0037 14 38.137 14 42.002Z" fill="currentColor"/>
<path fill-rule="evenodd" clip-rule="evenodd" d="M7.00001 45.5011C8.93301 45.5011 10.5 43.9345 10.5 42.002C10.5 40.0695 8.93301 38.5029 7.00001 38.5029C5.06701 38.5029 3.50001 40.0695 3.50001 42.002C3.50001 43.9345 5.06701 45.5011 7.00001 45.5011ZM7.00001 49.0003C10.866 49.0003 14 45.867 14 42.002C14 38.137 10.866 35.0037 7.00001 35.0037C3.13402 35.0037 1.04759e-05 38.137 1.04759e-05 42.002C1.04759e-05 45.867 3.13402 49.0003 7.00001 49.0003Z" fill="currentColor"/>
<path fill-rule="evenodd" clip-rule="evenodd" d="M38.5 42.002L27.5 31.0047L29.9749 28.5305L40.9749 39.5277L38.5 42.002Z" fill="currentColor"/>
<path fill-rule="evenodd" clip-rule="evenodd" d="M40.031 3.29402L28 20.7612L25.1173 18.7767L37.1484 1.3095L40.031 3.29402Z" fill="currentColor"/>
<path fill-rule="evenodd" clip-rule="evenodd" d="M20.5 31.0047L8.50001 43.0017L6.02514 40.5275L18.0251 28.5305L20.5 31.0047Z" fill="currentColor"/>
<path d="M39.8505 22.7837C41.977 21.5562 44.6963 22.2847 45.924 24.4107C47.1518 26.5367 46.4232 29.2553 44.2966 30.4827C42.1701 31.7102 39.4508 30.9818 38.2231 28.8557C36.9953 26.7297 37.7239 24.0112 39.8505 22.7837Z" fill="currentColor"/>
<path fill-rule="evenodd" clip-rule="evenodd" d="M42.8929 26.1603C42.6317 25.7078 42.053 25.5528 41.6005 25.814C41.1479 26.0752 40.9929 26.6538 41.2542 27.1062C41.5154 27.5586 42.0941 27.7136 42.5466 27.4524C42.9992 27.1912 43.1542 26.6127 42.8929 26.1603ZM45.924 24.4107C44.6963 22.2847 41.977 21.5562 39.8505 22.7837C37.7239 24.0112 36.9953 26.7297 38.2231 28.8557C39.4508 30.9818 42.1701 31.7102 44.2966 30.4827C46.4232 29.2553 47.1518 26.5367 45.924 24.4107Z" fill="currentColor"/>
<path fill-rule="evenodd" clip-rule="evenodd" d="M29.8189 24.081L41.0458 24.7677L40.8321 28.2603L29.6052 27.5736L29.8189 24.081Z" fill="currentColor"/>
<path d="M5.02419 12.0578C2.2494 12.0578 -1.07065e-07 9.80897 0 7.03488C1.07065e-07 4.26079 2.2494 2.01194 5.02419 2.01194C7.79897 2.01194 10.0484 4.26079 10.0484 7.03488C10.0484 9.80897 7.79897 12.0578 5.02419 12.0578Z" fill="currentColor"/>
<path fill-rule="evenodd" clip-rule="evenodd" d="M3.5 7.03488C3.5 7.87646 4.1824 8.55869 5.02419 8.55869C5.86597 8.55869 6.54837 7.87646 6.54837 7.03488C6.54837 6.1933 5.86597 5.51107 5.02419 5.51107C4.1824 5.51107 3.5 6.1933 3.5 7.03488ZM0 7.03488C-1.07065e-07 9.80897 2.2494 12.0578 5.02419 12.0578C7.79897 12.0578 10.0484 9.80897 10.0484 7.03488C10.0484 4.26079 7.79897 2.01194 5.02419 2.01194C2.2494 2.01194 1.07065e-07 4.26079 0 7.03488Z" fill="currentColor"/>
<path fill-rule="evenodd" clip-rule="evenodd" d="M18.6948 22.5767L6.69477 10.5796L9.16964 8.10538L21.1696 20.1024L18.6948 22.5767Z" fill="currentColor"/>
</svg>
