<svg viewBox="0 0 50 49" fill="none" xmlns="http://www.w3.org/2000/svg">
<path fill-rule="evenodd" clip-rule="evenodd" d="M15.3831 44.7759C8.22468 41.1511 3.5 33.5755 3.5 25.305C3.5 13.2453 13.1885 3.5 25 3.5C36.8115 3.5 46.5 13.2453 46.5 25.305C46.5 33.5759 41.7776 41.1517 34.6168 44.7787L30.9894 33.0538C33.3342 31.1975 34.75 28.3564 34.75 25.305C34.75 19.9232 30.4198 15.4788 25 15.4788C19.5802 15.4788 15.25 19.9232 15.25 25.305C15.25 28.3547 16.6646 31.1965 19.0103 33.0516L15.3831 44.7759ZM31.9156 47.8897C32.0438 48.3073 32.3375 48.6489 32.725 48.8418C32.9406 48.9462 33.175 49 33.4062 49C33.5938 49 33.7844 48.9652 33.9625 48.8956C43.5563 45.1948 50 35.7149 50 25.305C50 11.3525 38.7844 0 25 0C11.2156 0 0 11.3525 0 25.305C0 35.7149 6.44687 45.1948 16.0375 48.8925C16.4375 49.0538 16.8875 49.0285 17.275 48.8387C17.6625 48.6457 17.9563 48.3041 18.0844 47.8866L22.7719 32.7352C22.9937 32.0172 22.6875 31.239 22.0375 30.8784C20.0094 29.746 18.75 27.6109 18.75 25.305C18.75 21.8161 21.5531 18.9788 25 18.9788C28.4469 18.9788 31.25 21.8161 31.25 25.305C31.25 27.6109 29.9906 29.746 27.9625 30.8816C27.3125 31.2422 27.0031 32.0203 27.2281 32.7384L31.9156 47.8897Z" fill="currentColor"/>
</svg>
