<svg viewBox="0 0 48 50" fill="none" xmlns="http://www.w3.org/2000/svg">
<path d="M45.57 15.4548H45.55L28.19 1.49272C25.76 -0.497575 22.27 -0.497575 19.84 1.49272L2.46 15.4348H2.44C0.9 16.715 0 18.6153 0 20.6256V43.319C0 47.0095 2.96 50 6.62 50H41.38C45.04 50 48 46.9995 48 43.319V20.6256C48 18.6153 47.11 16.715 45.56 15.4448L45.57 15.4548ZM44.51 43.319C44.51 45.0993 43.08 46.4995 41.39 46.4995H6.63C4.93 46.4995 3.51 45.0993 3.51 43.319V20.6256C3.51 19.6554 3.94 18.7553 4.67 18.1552L22.03 4.22313H22.04L22.05 4.20313C23.19 3.26299 24.82 3.26299 25.96 4.20313H25.97L25.98 4.22313L43.34 18.1652C44.07 18.7653 44.5 19.6754 44.5 20.6356V43.329L44.51 43.319Z" fill="currentColor"/>
<path d="M14.56 28.6468C13.98 29.2269 13.98 30.167 14.56 30.7571C15.14 31.3372 16.09 31.3372 16.68 30.7571C20.72 26.7465 27.3 26.7465 31.34 30.7571C31.63 31.0472 32.02 31.1972 32.4 31.1972C32.78 31.1972 33.17 31.0472 33.46 30.7571C34.04 30.177 34.04 29.2369 33.46 28.6468C28.25 23.476 19.77 23.476 14.56 28.6468Z" fill="currentColor"/>
<path d="M18.61 32.6674C18.03 33.2475 18.03 34.1876 18.61 34.7777C19.19 35.3578 20.14 35.3578 20.73 34.7777C22.53 32.9874 25.47 32.9874 27.28 34.7777C27.57 35.0678 27.96 35.2178 28.34 35.2178C28.72 35.2178 29.11 35.0678 29.4 34.7777C29.98 34.1976 29.98 33.2575 29.4 32.6774C26.43 29.717 21.59 29.717 18.61 32.6774V32.6674Z" fill="currentColor"/>
<path d="M24.01 39.9985C25.1146 39.9985 26.01 39.1119 26.01 38.0182C26.01 36.9245 25.1146 36.0379 24.01 36.0379C22.9054 36.0379 22.01 36.9245 22.01 38.0182C22.01 39.1119 22.9054 39.9985 24.01 39.9985Z" fill="currentColor"/>
<path d="M37.57 24.5562C30.09 17.1351 17.92 17.1351 10.45 24.5562C9.87 25.1363 9.87 26.0764 10.45 26.6665C11.03 27.2466 11.98 27.2466 12.57 26.6665C18.88 20.4056 29.14 20.4056 35.45 26.6665C35.74 26.9565 36.13 27.1066 36.51 27.1066C36.89 27.1066 37.28 26.9565 37.57 26.6665C38.15 26.0864 38.15 25.1463 37.57 24.5562Z" fill="currentColor"/>
</svg>
