<?xml version="1.0" encoding="utf-8"?>
<svg version="1.1" xmlns="http://www.w3.org/2000/svg" xmlns:xlink="http://www.w3.org/1999/xlink" viewBox="0 0 118.7 118.7">
 <path d="M59,56c-2.3,0-4.1,1.8-4.1,4.7s1.8,4.7,4.1,4.7s4.1-1.8,4.1-4.7S61.3,56,59,56z"/>
 <path d="M117.5,36.9L117.5,36.9c-2.1-18.7-16.9-33.5-35.7-35.6l-0.3,0C66.8-0.4,52-0.4,37.2,1.2l-0.3,0C18.2,3.4,3.4,18.2,1.3,36.9	l0,0C0.4,44.4,0,51.9,0,59.4c0,0,0,0.5,0,0.5c0,34,4.5,54.3,4.5,54.3l0,0l0,0l0,0c0,0,20.3,4.5,54.3,4.5c0.1,0,0.1,0,0.2,0	c0.1,0,0.2,0,0.4,0c7.4,0,14.8-0.4,22.2-1.3l0.3,0c18.8-2.1,33.6-16.9,35.7-35.7l0.1-0.5C119.2,66.5,119.1,51.6,117.5,36.9z M78.5,77.7c-4,0-6.6-1.4-8.2-2.8c-1-0.8-1.7-1.7-2.3-2.9h-0.4c-0.6,1.1-1.3,2.1-2.3,2.9c-1.7,1.4-4,2.8-7.8,2.8	c-8,0-14.5-6.7-14.5-16.2s6.5-16.2,14.5-16.2c2.7,0,4.6,0.8,5.9,1.7c0.8,0.5,1.4,1.1,2,1.7h0.4v-3.1h8.3v18.9c0,3.1,2.1,5.3,4.8,5.3	c3.5,0,6.1-2.5,6.1-10.5c0-13.6-10.9-24.6-25.9-24.6c-14,0-25.4,11.4-25.4,26.3c0,14.9,11.4,26.3,25.4,26.3c5,0,9-1.3,11.7-2.6	c1.6-0.8,3-1.7,4.1-2.6l4.8,6.1c-1.5,1.5-3.3,2.7-5.4,3.8c-3.5,1.8-8.6,3.7-15.3,3.7c-18.4,0-34.2-15.8-34.2-34.7	c0-18.9,15.8-34.7,34.2-34.7c19.7,0,34.7,15,34.7,32.9C93.8,71.2,87.2,77.7,78.5,77.7z"/>
</svg>
