<svg viewBox="0 0 28 15" xmlns="http://www.w3.org/2000/svg" fill="currentColor">
  <path d="M27.9088 7.95307C27.848 8.09831 27.7602 8.22918 27.6498 8.3381L21.2494 14.6527C21.0158 14.8832 20.7085 15 20.4013 15C20.0941 15 19.7868 14.8848 19.5532 14.6527C19.0844 14.1902 19.0844 13.4403 19.5532 12.9777L23.9054 8.68382H1.20008C0.537634 8.68382 0 8.15339 0 7.49983C0 6.84626 0.537634 6.31583 1.20008 6.31583H23.9039L19.5516 2.02192C19.0828 1.55938 19.0828 0.809458 19.5516 0.34691C20.0205 -0.115637 20.7806 -0.115637 21.2494 0.34691L27.6498 6.66155C27.7602 6.77048 27.848 6.90134 27.9088 7.04658C28.0304 7.33705 28.0304 7.6626 27.9088 7.95307Z"/>
</svg>
