<svg viewBox="0 0 16 16" fill="none" xmlns="http://www.w3.org/2000/svg">
<path d="M13.3087 0.785113C13.8349 0.25909 14.6878 0.259168 15.214 0.785113C15.7402 1.31132 15.7402 2.16515 15.214 2.69136L9.9054 7.99996L15.214 13.3086C15.7402 13.8347 15.7402 14.6876 15.214 15.2138C14.6878 15.74 13.8349 15.74 13.3087 15.2138L8.00013 9.90523L2.69056 15.2138C2.16434 15.74 1.31148 15.74 0.785283 15.2138C0.259319 14.6876 0.259192 13.8347 0.785283 13.3086L6.09388 7.99996L0.785283 2.69136C0.259072 2.16515 0.259072 1.31132 0.785283 0.785113C1.3114 0.259043 2.16433 0.259218 2.69056 0.785113L8.00013 6.09371L13.3087 0.785113Z" fill="currentColor"/>
</svg>
