<svg viewBox="0 0 24 24" fill="currentColor" xmlns="http://www.w3.org/2000/svg">
<path d="M8.73041 16.6531C8.73041 17.4646 8.07895 18.1224 7.27534 18.1224C6.47173 18.1224 5.82027 17.4646 5.82027 16.6531C5.82027 15.8415 6.47173 15.1837 7.27534 15.1837C8.07895 15.1837 8.73041 15.8415 8.73041 16.6531Z" fill="currentColor"/>
<path d="M11.6405 13.7143C11.6405 14.5258 10.9891 15.1837 10.1855 15.1837C9.38186 15.1837 8.73041 14.5258 8.73041 13.7143C8.73041 12.9028 9.38186 12.2449 10.1855 12.2449C10.9891 12.2449 11.6405 12.9028 11.6405 13.7143Z" fill="currentColor"/>
<path d="M5.82027 19.5918C5.82027 20.4034 5.16881 21.0612 4.3652 21.0612C3.56159 21.0612 2.91014 20.4034 2.91014 19.5918C2.91014 18.7803 3.56159 18.1224 4.3652 18.1224C5.16881 18.1224 5.82027 18.7803 5.82027 19.5918Z" fill="currentColor"/>
<path d="M5.82027 14.2041C5.82027 15.0156 5.16881 15.6735 4.3652 15.6735C3.56159 15.6735 2.91014 15.0156 2.91014 14.2041C2.91014 13.3926 3.56159 12.7347 4.3652 12.7347C5.16881 12.7347 5.82027 13.3926 5.82027 14.2041Z" fill="currentColor"/>
<path d="M11.6405 19.5918C11.6405 20.4034 10.9891 21.0612 10.1855 21.0612C9.38186 21.0612 8.73041 20.4034 8.73041 19.5918C8.73041 18.7803 9.38186 18.1224 10.1855 18.1224C10.9891 18.1224 11.6405 18.7803 11.6405 19.5918Z" fill="currentColor"/>
<path d="M17.0114 8.73464C16.8034 9.51851 16.0056 9.98369 15.2293 9.77366C14.4531 9.56362 13.9925 8.7579 14.2004 7.97403C14.4084 7.19016 15.2063 6.72498 15.9825 6.93502C16.7588 7.14505 17.2194 7.95077 17.0114 8.73464Z" fill="currentColor"/>
<path fill-rule="evenodd" clip-rule="evenodd" d="M12.1256 11.0204H2.42511C2.02331 11.0204 1.69758 11.3493 1.69758 11.7551V21.551C1.69758 21.9568 2.02331 22.2857 2.42511 22.2857H12.1256C12.5274 22.2857 12.8531 21.9568 12.8531 21.551V11.7551C12.8531 11.3493 12.5274 11.0204 12.1256 11.0204ZM2.42511 9.30612C1.08576 9.30612 0 10.4026 0 11.7551V21.551C0 22.9036 1.08576 24 2.42511 24H12.1256C13.4649 24 14.5507 22.9036 14.5507 21.551V11.7551C14.5507 10.4026 13.4649 9.30612 12.1256 9.30612H2.42511Z" fill="currentColor"/>
<path fill-rule="evenodd" clip-rule="evenodd" d="M12.3927 1.73993L21.7626 4.2753C22.1507 4.38032 22.381 4.78318 22.277 5.17511L19.7664 14.6372C19.6624 15.0292 19.2634 15.2618 18.8753 15.1567L14.4839 13.9685V15.7433L18.436 16.8126C19.7297 17.1627 21.0595 16.3874 21.4061 15.0809L23.9168 5.6188C24.2634 4.31235 23.4957 2.96949 22.202 2.61942L12.832 0.0840547C11.5383 -0.266007 10.2085 0.509297 9.86189 1.81574L7.76036 9.73593H9.51782L11.5016 2.25943C11.6056 1.8675 12.0046 1.63491 12.3927 1.73993Z" fill="currentColor"/>
</svg>
