<svg viewBox="0 0 24 24" fill="currentColor" xmlns="http://www.w3.org/2000/svg">
  <path d="M10.874 15.1984C11.3519 15.7959 12.2679 15.7959 12.7658 15.1984L17.5251 9.24299C18.1623 8.44628 17.6047 7.27113 16.5891 7.27113H15.713C15.0558 7.27113 14.4982 6.73335 14.4982 6.05614V1.71407C14.4982 1.05678 13.9606 0.499084 13.2835 0.499084H10.3562C9.69911 0.499084 9.14153 1.03686 9.14153 1.71407V6.07606C9.14153 6.73335 8.60387 7.29105 7.92681 7.29105H7.05062C6.03504 7.29105 5.47746 8.46619 6.11469 9.2629L10.874 15.1984Z"/>
  <path d="M20.6502 15.5139V18.1829C20.6502 19.4576 19.6147 20.4934 18.3403 20.4934H5.31688C4.04242 20.4934 3.00693 19.4576 3.00693 18.1829V15.5139H0V18.1829C0 21.1108 2.38961 23.5009 5.31688 23.5009H18.3203C21.2476 23.5009 23.6372 21.1108 23.6372 18.1829V15.5139H20.6502Z"/>
</svg>
