<svg viewBox="0 0 16 18" fill="none" xmlns="http://www.w3.org/2000/svg">
<path d="M4.89648 18C5.5201 18 5.69634 17.7512 5.69634 17.4332C5.69634 17.1152 5.69635 16.424 5.68279 15.4424C2.44266 16.1475 1.75125 13.8664 1.75125 13.8664C1.22253 12.5253 0.449777 12.1521 0.449777 12.1521C-0.607671 11.4332 0.531119 11.447 0.531119 11.447C1.69702 11.53 2.32065 12.6498 2.32065 12.6498C3.36454 14.447 5.04561 13.9217 5.7099 13.6175C5.76413 13.023 6.02171 12.4562 6.45554 12.0415C3.86615 11.7512 1.14119 10.7419 1.14119 6.26267C1.12763 5.10138 1.56145 3.96774 2.34776 3.12442C2.21219 2.8341 1.81904 1.64516 2.44266 0.0276475C2.44266 0.0276475 3.41877 -0.290325 5.65567 1.23041C7.56721 0.705067 9.57365 0.705067 11.4852 1.23041C13.695 -0.2765 14.6847 0.0276475 14.6847 0.0276475C15.3083 1.63133 14.9151 2.82027 14.8067 3.12442C15.593 3.96774 16.0132 5.10138 15.9997 6.26267C15.9997 10.7558 13.2747 11.7373 10.6718 12.0276C11.0785 12.3733 11.4581 13.0922 11.4581 14.1843C11.4581 15.7604 11.4445 17.0046 11.4445 17.3779C11.4445 17.682 11.5801 17.9309 12.2444 17.9309L4.89648 18Z" fill="currentColor"/>
<defs>
<linearGradient id="paint0_linear_256_149" x1="0.64" y1="14.0218" x2="27.4735" y2="-5.20858" gradientUnits="userSpaceOnUse">
<stop stop-color="#FFC934"/>
<stop offset="1" stop-color="#FFE346"/>
</linearGradient>
</defs>
</svg>
