<svg viewBox="0 0 13 23" fill="currentColor" xmlns="http://www.w3.org/2000/svg">
<path fill-rule="evenodd" clip-rule="evenodd" d="M10.6786 1.61H2.32143C1.9368 1.61 1.625 1.91892 1.625 2.3V20.7C1.625 21.0811 1.9368 21.39 2.32143 21.39H10.6786C11.0632 21.39 11.375 21.0811 11.375 20.7V2.3C11.375 1.91892 11.0632 1.61 10.6786 1.61ZM2.32143 0C1.03934 0 0 1.02975 0 2.3V20.7C0 21.9703 1.03934 23 2.32143 23H10.6786C11.9607 23 13 21.9703 13 20.7V2.3C13 1.02975 11.9607 0 10.6786 0H2.32143Z" fill="currentColor"/>
<path fill-rule="evenodd" clip-rule="evenodd" d="M12.0714 17.94H0.928571V16.33H12.0714V17.94Z" fill="currentColor"/>
<path d="M7.42857 19.78C7.42857 20.2881 7.01284 20.7 6.5 20.7C5.98716 20.7 5.57143 20.2881 5.57143 19.78C5.57143 19.2719 5.98716 18.86 6.5 18.86C7.01284 18.86 7.42857 19.2719 7.42857 19.78Z" fill="currentColor"/>
</svg>
