<svg viewBox="0 0 22 22" fill="none" xmlns="http://www.w3.org/2000/svg">
<path fill-rule="evenodd" clip-rule="evenodd" d="M10.9992 0.79725C10.255 0.79725 9.65171 1.40052 9.65172 2.1447L9.65172 9.65256L2.14386 9.65255C1.39969 9.65255 0.796413 10.2558 0.796414 11C0.796414 11.7442 1.39969 12.3474 2.14386 12.3474L9.65172 12.3475L9.65172 19.8553C9.65172 20.5995 10.255 21.2027 10.9992 21.2027C11.7433 21.2027 12.3466 20.5995 12.3466 19.8553L12.3466 12.3475L19.8545 12.3475C20.5986 12.3475 21.2019 11.7442 21.2019 11C21.2019 10.2558 20.5986 9.65256 19.8545 9.65256L12.3466 9.65256L12.3466 2.1447C12.3466 1.40053 11.7433 0.79725 10.9992 0.79725Z" fill="currentColor"/>
</svg>
