<svg viewBox="0 0 47 50" fill="none" xmlns="http://www.w3.org/2000/svg">
<path d="M23.5 0C21.1711 2.25062 14.4911 6.32045 2.33413 6.67329L0.579011 6.72423V8.47607C0.579011 9.85497 0.484123 11.3497 0.367433 12.9793C0.350979 13.209 0.334093 13.4415 0.317032 13.6763C0.214484 15.088 0.10562 16.5865 0.046155 18.1191C-0.0928148 21.7008 0.0292119 25.6093 1.15595 29.5336C3.38273 37.2891 9.37967 44.608 23.5 50V46.1229C11.1245 41.1034 6.4082 34.7281 4.63154 28.5403C3.65766 25.1484 3.52616 21.6777 3.65882 18.2586C3.71574 16.7918 3.81966 15.3603 3.92231 13.9462C3.93952 13.7091 3.9567 13.4725 3.97362 13.2363C4.04685 12.2136 4.11528 11.1967 4.15599 10.2042C13.3391 9.66987 19.7117 7.09267 23.5 4.57868V0Z" fill="currentColor"/>
<path d="M23.5 0C25.829 2.25062 32.5089 6.32045 44.6659 6.67329L46.421 6.72423V8.47607C46.421 9.85497 46.5159 11.3497 46.6326 12.9793C46.649 13.209 46.6659 13.4415 46.683 13.6763C46.7855 15.088 46.8944 16.5865 46.9538 18.1191C47.0928 21.7008 46.9708 25.6093 45.844 29.5336C43.6173 37.2891 37.6204 44.608 23.5 50V46.1229C35.8755 41.1034 40.5918 34.7281 42.3685 28.5403C43.3423 25.1484 43.4738 21.6777 43.3412 18.2586C43.2843 16.7918 43.1803 15.3603 43.0777 13.9462C43.0605 13.7091 43.0433 13.4725 43.0264 13.2363C42.9531 12.2136 42.8847 11.1967 42.844 10.2042C33.6609 9.66987 27.2883 7.09267 23.5 4.57868V0Z" fill="currentColor"/>
</svg>
