<svg width="1440" height="758" viewBox="0 0 1440 758" fill="none" xmlns="http://www.w3.org/2000/svg">
<mask id="mask0_264_263" style="mask-type:alpha" maskUnits="userSpaceOnUse" x="0" y="0" width="1440" height="758">
<rect width="1440" height="758" rx="25" fill="#F4F5F9" fill-opacity="0.8"/>
</mask>
<g mask="url(#mask0_264_263)">
<rect width="1440" height="758" rx="25" fill="#EAECF7" fill-opacity="0.8"/>
<path d="M-58.8716 -96.0141C-20.7902 -88.4353 14.2773 -65.6272 32.2266 -31.4257C55.5729 13.094 52.7258 64.961 88.6349 103.805C99.0986 115.137 112.312 124.611 127.496 127.291C143.891 130.178 160.527 124.886 176.27 119.497C192.014 114.108 208.441 108.494 224.962 110.712C263.467 115.945 262.873 158.052 254.391 187.159C237.184 246.179 187.559 277.541 133.489 299.023C78.1892 320.968 17.3912 332.168 -41.8501 322.075C-153.064 303.135 -273.266 202.996 -266.482 82.0809C-265.192 58.2738 -259.485 34.6845 -249.585 12.9809C-222.646 -45.9313 -162.743 -93.4165 -97.0932 -98.3702C-84.3557 -99.3192 -71.4487 -98.4998 -58.8508 -95.9712L-58.8716 -96.0141Z" fill="url(#paint0_linear_264_263)"/>
<path d="M1238.03 414.666C1229.18 452.472 1235.45 493.833 1259.16 524.321C1290.04 563.99 1338.44 582.85 1358.95 631.609C1364.94 645.823 1368.1 661.772 1364.26 676.704C1360.11 692.826 1348.41 705.784 1336.99 717.888C1325.58 729.993 1313.67 742.628 1308.86 758.587C1297.7 795.808 1336.28 812.682 1366.29 816.999C1427.14 825.744 1476.22 793.533 1518.14 753.19C1560.99 711.918 1596.33 661.196 1611.65 603.085C1640.4 493.995 1598.94 343.139 1486.05 299.305C1463.84 290.633 1440 286.073 1416.15 286.11C1351.37 286.27 1283.36 321.169 1251.7 378.892C1245.57 390.097 1240.97 402.187 1238.06 414.702L1238.03 414.666Z" fill="url(#paint1_linear_264_263)"/>
</g>
<defs>
<linearGradient id="paint0_linear_264_263" x1="521" y1="369" x2="-102" y2="229" gradientUnits="userSpaceOnUse">
<stop stop-color="#C7CAD7"/>
<stop offset="1" stop-color="#EAECF7"/>
</linearGradient>
<linearGradient id="paint1_linear_264_263" x1="669" y1="472" x2="1524.92" y2="580.901" gradientUnits="userSpaceOnUse">
<stop stop-color="#C7CAD7"/>
<stop offset="1" stop-color="#EAECF7"/>
</linearGradient>
</defs>
</svg>
