<svg viewBox="0 0 1440 642" fill="none" xmlns="http://www.w3.org/2000/svg">
  <mask id="mask0_264_546" style="mask-type:alpha" maskUnits="userSpaceOnUse" x="0" y="0" width="1440" height="642">
    <rect width="1440" height="642" rx="25" fill="#F6F7FA"/>
  </mask>
  <g mask="url(#mask0_264_546)">
    <rect width="1440" height="642" rx="25" fill="url(#paint0_radial_264_546)"/>
    <path d="M1576.71 523.217C1565.2 531.072 1552.49 537.273 1539.34 541.967C1509.63 552.554 1476.79 555.548 1446.23 547.605C1361.68 525.541 1337.67 432.148 1313.35 359.917C1297.45 312.631 1259.79 298.975 1216.76 283.276C1163.24 263.699 1118.63 227.92 1107.17 169.275C1081.05 34.94 1187.26 -103.548 1311.05 -145.974C1432.04 -187.488 1539.57 -73.438 1565.1 35.4855C1576.37 83.5699 1570.9 131.198 1574.61 179.718C1578.44 230.673 1592.06 280.38 1608.95 328.399C1616.8 350.749 1625.45 373.041 1628.98 396.457C1634.5 432.962 1625.72 474.38 1600.88 502.198C1593.75 510.204 1585.6 517.158 1576.75 523.199L1576.71 523.217Z" fill="url(#paint1_linear_264_546)"/>
    <path d="M144.057 326.041C180.454 339.564 211.46 367.646 223.757 404.262C239.745 451.922 228.706 502.68 257.999 546.729C266.533 559.577 278.076 571.027 292.642 576.082C308.372 581.533 325.637 578.947 342.036 576.123C358.435 573.3 375.545 570.363 391.504 575.174C428.692 586.448 421.425 627.928 408.434 655.321C382.083 710.864 328.111 733.957 271.318 746.59C213.237 759.485 151.432 760.899 94.5421 741.536C-12.2595 705.194 -115.054 587.255 -89.1753 468.948C-84.1249 445.647 -74.7483 423.261 -61.5307 403.403C-25.5878 349.51 41.089 312.128 106.693 317.651C119.42 318.735 132.034 321.592 144.071 326.086L144.057 326.041Z" fill="url(#paint2_linear_264_546)"/>
  </g>
  <defs>
    <radialGradient id="paint0_radial_264_546" cx="0" cy="0" r="1" gradientUnits="userSpaceOnUse" gradientTransform="translate(720 321) rotate(90) scale(321 720)">
      <stop stop-color="white"/>
      <stop offset="1" stop-color="#EAECF7"/>
    </radialGradient>
    <linearGradient id="paint1_linear_264_546" x1="948" y1="499" x2="1351.66" y2="180.602" gradientUnits="userSpaceOnUse">
      <stop stop-color="#C7CAD7"/>
      <stop offset="1" stop-color="#EAECF7"/>
    </linearGradient>
    <linearGradient id="paint2_linear_264_546" x1="823.998" y1="172" x2="123.998" y2="657" gradientUnits="userSpaceOnUse">
      <stop stop-color="#C7CAD7"/>
      <stop offset="1" stop-color="#EAECF7"/>
    </linearGradient>
  </defs>
</svg>
